<?xml version="1.0" standalone="no"?><!DOCTYPE svg PUBLIC "-//W3C//DTD SVG 1.1//EN" "http://www.w3.org/Graphics/SVG/1.1/DTD/svg11.dtd"><svg t="1533527592273" class="icon" style="" viewBox="0 0 1194 1024" version="1.1" xmlns="http://www.w3.org/2000/svg" p-id="1630" xmlns:xlink="http://www.w3.org/1999/xlink" width="55.96875" height="48"><defs><style type="text/css"></style></defs><path d="M85.333333 0h1024c51.2 0 85.333333 34.133333 85.333334 85.333333s-34.133333 85.333333-85.333334 85.333334H85.333333c-51.2 0-85.333333-34.133333-85.333333-85.333334s34.133333-85.333333 85.333333-85.333333zM85.333333 426.666667h1024c51.2 0 85.333333 34.133333 85.333334 85.333333s-34.133333 85.333333-85.333334 85.333333H85.333333c-51.2 0-85.333333-34.133333-85.333333-85.333333s34.133333-85.333333 85.333333-85.333333zM85.333333 853.333333h1024c51.2 0 85.333333 34.133333 85.333334 85.333334s-34.133333 85.333333-85.333334 85.333333H85.333333c-51.2 0-85.333333-34.133333-85.333333-85.333333s34.133333-85.333333 85.333333-85.333334z" fill="#ffffff" p-id="1631"></path></svg>