<?xml version="1.0" encoding="utf-8"?>
<!-- Generator: Adobe Illustrator 22.1.0, SVG Export Plug-In . SVG Version: 6.00 Build 0)  -->
<svg version="1.1" id="图层_1" xmlns="http://www.w3.org/2000/svg" xmlns:xlink="http://www.w3.org/1999/xlink" x="0px" y="0px"
	 viewBox="0 0 24 24" style="enable-background:new 0 0 24 24;" xml:space="preserve">
<style type="text/css">
	.st0{fill:#282C32;}
	.st1{fill:#FFFFFF;}
</style>
<title>OTC交易</title>
<desc>Created with Sketch.</desc>
<g id="图标">
	<g id="OTC交易">
		<circle id="Oval-Copy-13" class="st0" cx="12" cy="12" r="12"/>
		<path id="o" class="st1" d="M6,11.8c0-1,0.3-2,0.8-2.9S8,7.2,8.9,6.7S10.9,6,12,6c1.8,0,3.2,0.6,4.3,1.7C17.4,8.8,18,10.2,18,12
			c0,1.7-0.6,3.2-1.7,4.3C15.2,17.4,13.7,18,12,18c-1.1,0-2.1-0.2-3-0.7c-1-0.5-1.7-1.2-2.2-2.1S6,13.2,6,11.8z M9.2,12
			c0,1.1,0.3,2,0.8,2.6c0.5,0.6,1.2,0.9,2,0.9s1.5-0.3,2-0.9c0.5-0.6,0.8-1.5,0.8-2.6c0-1.1-0.3-2-0.8-2.6c-0.5-0.6-1.2-0.9-2-0.9
			s-1.5,0.3-2,0.9C9.4,10,9.2,10.9,9.2,12z"/>
	</g>
</g>
</svg>
