<?xml version="1.0" encoding="utf-8"?>
<!-- Generator: Adobe Illustrator 22.1.0, SVG Export Plug-In . SVG Version: 6.00 Build 0)  -->
<svg version="1.1" id="图层_1" xmlns="http://www.w3.org/2000/svg" xmlns:xlink="http://www.w3.org/1999/xlink" x="0px" y="0px"
	 viewBox="0 0 24 24" style="enable-background:new 0 0 24 24;" xml:space="preserve">
<style type="text/css">
	.st0{fill:#282C32;}
	.st1{fill:#FFFFFF;}
</style>
<title>交易记录</title>
<desc>Created with Sketch.</desc>
<g id="图标">
	<g id="交易记录">
		<circle id="Oval-Copy-7" class="st0" cx="12" cy="12" r="12"/>
		<g id="Group-2" transform="translate(7.000000, 6.000000)">
			<path id="Rectangle" class="st1" d="M8,9.3h2L7.5,12V9.8C7.5,9.5,7.7,9.3,8,9.3z"/>
			<path id="Shape" class="st1" d="M9.4,0H0.6C0.3,0,0,0.3,0,0.7v10.7C0,11.7,0.3,12,0.6,12h6V9.3c0-0.4,0.4-0.8,0.8-0.8H10V0.7
				C10,0.3,9.7,0,9.4,0z M8.6,6H1.5C1.2,6,1,5.8,1,5.5S1.2,5,1.5,5h7.1C8.8,5,9,5.2,9,5.5S8.8,6,8.6,6z M4.8,8H1.2
				C1.1,8,1,7.8,1,7.5S1.1,7,1.2,7h3.5C4.9,7,5,7.2,5,7.5S4.9,8,4.8,8z M8.6,4H1.5C1.2,4,1,3.8,1,3.5S1.2,3,1.5,3h7.1
				C8.8,3,9,3.2,9,3.5S8.8,4,8.6,4z"/>
		</g>
	</g>
</g>
</svg>
