<?xml version="1.0" encoding="utf-8"?>
<!-- Generator: Adobe Illustrator 22.1.0, SVG Export Plug-In . SVG Version: 6.00 Build 0)  -->
<svg version="1.1" id="图层_1" xmlns="http://www.w3.org/2000/svg" xmlns:xlink="http://www.w3.org/1999/xlink" x="0px" y="0px"
	 viewBox="0 0 24 24" style="enable-background:new 0 0 24 24;" xml:space="preserve">
<style type="text/css">
	.st0{fill:#282C32;}
	.st1{fill:#FFFFFF;}
</style>
<title>修改登录密码</title>
<desc>Created with Sketch.</desc>
<g id="图标">
	<g id="修改登录密码">
		<circle id="Oval-Copy-2" class="st0" cx="12" cy="12" r="12"/>
		<path id="Shape" class="st1" d="M10.4,11.2H8.7v-2c0-0.4,0.1-0.9,0.3-1.2s0.4-0.7,0.7-1c0.3-0.3,0.7-0.5,1.1-0.7S11.5,6,12,6
			c0.4,0,0.8,0.1,1.2,0.2s0.7,0.4,1.1,0.7c0.3,0.3,0.6,0.6,0.7,1s0.3,0.8,0.3,1.2v2h-1.6V9.6c0-0.6-0.2-1-0.5-1.3
			c-0.3-0.3-0.7-0.5-1.3-0.5c-0.5,0-0.9,0.2-1.2,0.5c-0.3,0.3-0.4,0.8-0.4,1.3V11.2z M16.1,12c0.2,0,0.4,0.1,0.6,0.3
			c0.2,0.2,0.3,0.4,0.3,0.6v4.3c0,0.2,0,0.5-0.1,0.7c-0.1,0.2-0.2,0.4-0.3,0.6c-0.1,0.2-0.3,0.3-0.5,0.4S15.6,19,15.3,19H8.6
			c-0.2,0-0.5,0-0.7-0.1c-0.2-0.1-0.4-0.2-0.5-0.4c-0.1-0.2-0.2-0.3-0.3-0.5S7,17.5,7,17.3v-4.4c0-0.2,0.1-0.5,0.3-0.6
			C7.4,12.1,7.6,12,7.9,12h0.8h1.7h3.3h1.6H16.1z"/>
	</g>
</g>
</svg>
