<?xml version="1.0" encoding="utf-8"?>
<!-- Generator: Adobe Illustrator 22.1.0, SVG Export Plug-In . SVG Version: 6.00 Build 0)  -->
<svg version="1.1" id="图层_1" xmlns="http://www.w3.org/2000/svg" xmlns:xlink="http://www.w3.org/1999/xlink" x="0px" y="0px"
	 viewBox="0 0 24 24" style="enable-background:new 0 0 24 24;" xml:space="preserve">
<style type="text/css">
	.st0{fill:#282C32;}
	.st1{fill:#FFFFFF;}
</style>
<title>修改资金密码</title>
<desc>Created with Sketch.</desc>
<g id="图标">
	<g id="修改资金密码">
		<circle id="Oval-Copy" class="st0" cx="12" cy="12" r="12"/>
		<path id="Shape" class="st1" d="M6.3,13.4l0.6-0.6c0.2-0.2,0.4-0.3,0.6-0.3c0.2,0,0.3,0.1,0.5,0.2l0.6,0.6l-1.7,1.7l-0.6-0.6
			C5.9,14.2,5.9,13.8,6.3,13.4z M17.7,11.9c-0.2,0.4-0.4,0.8-0.8,1.2c-0.3,0.3-0.6,0.5-0.9,0.7c-0.3,0.2-0.7,0.3-1.1,0.3
			s-0.7,0.1-1.1,0c-0.4-0.1-0.7-0.2-1.1-0.3l-3.9,3.8c-0.1,0.1-0.2,0.2-0.4,0.3C8.4,18,8.2,18,8.1,18c-0.2,0-0.3,0-0.5-0.1
			c-0.2,0-0.3-0.1-0.4-0.2c-0.1-0.1-0.2-0.3-0.3-0.4c-0.1-0.2-0.1-0.3-0.1-0.5c0-0.2,0-0.3,0.1-0.5C7,16.2,7,16,7.2,15.9l3.9-3.8
			c-0.2-0.3-0.3-0.7-0.3-1c0-0.4,0-0.7,0-1.1c0.1-0.4,0.2-0.7,0.3-1c0.2-0.3,0.4-0.6,0.7-0.9c0.4-0.4,0.8-0.6,1.2-0.8
			C13.4,7.1,13.9,7,14.3,7c0.5,0,0.9,0.1,1.4,0.3c0.4,0.2,0.8,0.4,1.2,0.8c0.4,0.3,0.6,0.7,0.8,1.2c0.2,0.4,0.3,0.9,0.3,1.4
			C18,11.1,17.9,11.5,17.7,11.9z M14.3,9.3c-0.3,0-0.6,0.1-0.9,0.4c-0.2,0.2-0.4,0.5-0.4,0.9c0,0.3,0.1,0.6,0.4,0.9
			c0.3,0.2,0.5,0.4,0.9,0.4c0.3,0,0.6-0.1,0.9-0.4c0.3-0.2,0.4-0.5,0.4-0.9c0-0.3-0.1-0.6-0.4-0.9C14.9,9.4,14.6,9.3,14.3,9.3z"/>
	</g>
</g>
</svg>
