<?xml version="1.0" encoding="utf-8"?>
<!-- Generator: Adobe Illustrator 22.1.0, SVG Export Plug-In . SVG Version: 6.00 Build 0)  -->
<svg version="1.1" id="图层_1" xmlns="http://www.w3.org/2000/svg" xmlns:xlink="http://www.w3.org/1999/xlink" x="0px" y="0px"
	 viewBox="0 0 24 24" style="enable-background:new 0 0 24 24;" xml:space="preserve">
<style type="text/css">
	.st0{fill:#282C32;}
	.st1{fill:#FFFFFF;}
</style>
<title>充值记录</title>
<desc>Created with Sketch.</desc>
<g id="图标">
	<g id="充值记录">
		<g id="提笔记录-copy">
			<circle id="Oval-Copy-5" class="st0" cx="12" cy="12" r="12"/>
		</g>
		<path id="Path" class="st1" d="M12.2,8.2c0.5,0,0.9,0.1,1.2,0.4c0.3,0.3,0.4,0.7,0.4,1.3H17c0-0.9-0.3-1.7-1-2.2
			c-0.7-0.6-1.6-0.9-2.8-1V5h-1.6v1.6c-1.2,0.1-2.2,0.4-3,0.9s-1.1,1.2-1.1,2c0,0.9,0.4,1.6,1.1,2.1c0.7,0.5,1.8,0.9,3.4,1.3
			c0.7,0.2,1.2,0.5,1.4,0.7c0.3,0.2,0.4,0.6,0.4,1c0,0.4-0.1,0.7-0.4,1c-0.3,0.2-0.7,0.4-1.2,0.4c-0.6,0-1.1-0.1-1.4-0.4
			c-0.4-0.3-0.5-0.7-0.5-1.4H7l0,0c0,1,0.4,1.8,1.2,2.4c0.8,0.5,1.9,0.9,3.1,1V19H13v-1.5c1.2-0.1,2.2-0.4,2.9-0.9
			c0.7-0.5,1.1-1.2,1.1-2c0-0.9-0.4-1.6-1.1-2.1c-0.7-0.5-1.8-0.9-3.3-1.3c-0.7-0.3-1.2-0.5-1.5-0.8c-0.3-0.2-0.4-0.5-0.4-0.9
			c0-0.4,0.1-0.7,0.3-1C11.3,8.3,11.6,8.2,12.2,8.2z"/>
	</g>
</g>
</svg>
