<?xml version="1.0" encoding="utf-8"?>
<!-- Generator: Adobe Illustrator 22.1.0, SVG Export Plug-In . SVG Version: 6.00 Build 0)  -->
<svg version="1.1" id="图层_1" xmlns="http://www.w3.org/2000/svg" xmlns:xlink="http://www.w3.org/1999/xlink" x="0px" y="0px"
	 viewBox="0 0 24 24" style="enable-background:new 0 0 24 24;" xml:space="preserve">
<style type="text/css">
	.st0{fill:#282C32;}
	.st1{fill:#FFFFFF;}
</style>
<title>商家认证</title>
<desc>Created with Sketch.</desc>
<g id="图标">
	<g id="商家认证">
		<circle id="Oval-Copy-4" class="st0" cx="12" cy="12" r="12"/>
		<path id="Shape" class="st1" d="M7,6H16c0.3,0,0.6,0.3,0.6,0.6c0,0.3-0.3,0.6-0.6,0.6H7C6.7,7.2,6.4,7,6.4,6.6C6.4,6.3,6.7,6,7,6z
			 M16.8,17.4c0,0.3-0.3,0.6-0.6,0.6h-2.5H9.4H6.8c-0.3,0-0.6-0.3-0.6-0.6v-4.2c0.1,0,0.3,0,0.4,0c0.1,0,0.1,0,0.2,0v0
			c0.1,0,0.1,0,0.2,0c0,0,0,0,0,0c0,0,0.1,0,0.1,0c0.1,0,0.2-0.1,0.3-0.1v0v3.1h2.6H13h2.6v-3.1v0c0.1,0,0.2,0.1,0.3,0.1
			c0,0,0.1,0,0.1,0c0,0,0,0,0,0c0.1,0,0.1,0,0.2,0v0c0.1,0,0.1,0,0.2,0c0.1,0,0.3,0,0.4,0L16.8,17.4L16.8,17.4z M16.4,12.6
			c-0.9,0-1.6-0.7-1.6-1.7c0,0.9-0.7,1.7-1.6,1.7c-0.9,0-1.6-0.7-1.6-1.7c0,0.9-0.7,1.7-1.6,1.7S8.2,11.9,8.2,11
			c0,0.9-0.7,1.7-1.6,1.7S5,11.9,5,11l1.1-3.1h10.7L18,11C18,11.9,17.3,12.6,16.4,12.6z"/>
	</g>
</g>
</svg>
