<?xml version="1.0" encoding="utf-8"?>
<!-- Generator: Adobe Illustrator 22.1.0, SVG Export Plug-In . SVG Version: 6.00 Build 0)  -->
<svg version="1.1" id="图层_1" xmlns="http://www.w3.org/2000/svg" xmlns:xlink="http://www.w3.org/1999/xlink" x="0px" y="0px"
	 viewBox="0 0 24 24" style="enable-background:new 0 0 24 24;" xml:space="preserve">
<style type="text/css">
	.st0{fill:#282C32;}
	.st1{fill:#FFFFFF;}
</style>
<title>委托交易</title>
<desc>Created with Sketch.</desc>
<g id="图标">
	<g id="委托交易">
		<circle id="Oval-Copy-14" class="st0" cx="12" cy="12" r="12"/>
		<path id="C" class="st1" d="M14.8,13.5l2.2,0.7c-0.3,1.3-0.9,2.2-1.7,2.8c-0.8,0.6-1.8,0.9-3.1,0.9c-1.5,0-2.8-0.5-3.8-1.6
			c-1-1.1-1.5-2.5-1.5-4.3c0-1.9,0.5-3.4,1.5-4.5S10.8,6,12.4,6c1.4,0,2.5,0.4,3.4,1.3c0.5,0.5,0.9,1.2,1.2,2.1l-2.3,0.6
			c-0.1-0.6-0.4-1.1-0.8-1.4c-0.4-0.3-1-0.5-1.6-0.5c-0.9,0-1.5,0.3-2.1,0.9c-0.5,0.6-0.8,1.6-0.8,3c0,1.5,0.3,2.5,0.8,3.1
			c0.5,0.6,1.2,0.9,2,0.9c0.6,0,1.1-0.2,1.6-0.6S14.6,14.4,14.8,13.5z"/>
	</g>
</g>
</svg>
