<?xml version="1.0" encoding="utf-8"?>
<!-- Generator: Adobe Illustrator 22.1.0, SVG Export Plug-In . SVG Version: 6.00 Build 0)  -->
<svg version="1.1" id="图层_1" xmlns="http://www.w3.org/2000/svg" xmlns:xlink="http://www.w3.org/1999/xlink" x="0px" y="0px"
	 viewBox="0 0 24 24" style="enable-background:new 0 0 24 24;" xml:space="preserve">
<style type="text/css">
	.st0{fill:#282C32;}
	.st1{fill:#FFFFFF;}
</style>
<title>安全日志</title>
<desc>Created with Sketch.</desc>
<g id="图标">
	<g id="安全日志">
		<circle id="Oval-Copy-3" class="st0" cx="12" cy="12" r="12"/>
		<path id="Shape" class="st1" d="M18,8.6c0,0.1,0.8,7.8-5.7,10.4l-0.1,0h-0.4l-0.1,0C5.2,16.4,6,8.7,6,8.6l0-0.3h0.3
			c0.1,0,1.2-0.1,1.4-1.5l0-0.2L8,6.5c3-1.2,3.6-1.4,3.8-1.4l0.1,0H12c0.1,0,0.1,0,4,1.4l0.2,0.1l0,0.2c0.2,1.4,1.3,1.5,1.4,1.5h0.3
			L18,8.6z M12,7.4l-1.2,2.5l-2.7,0.4l2,2L9.6,15l2.4-1.3l2.4,1.3L14,12.3l2-2l-2.7-0.4L12,7.4z"/>
	</g>
</g>
</svg>
