<?xml version="1.0" encoding="utf-8"?>
<!-- Generator: Adobe Illustrator 22.1.0, SVG Export Plug-In . SVG Version: 6.00 Build 0)  -->
<svg version="1.1" id="图层_1" xmlns="http://www.w3.org/2000/svg" xmlns:xlink="http://www.w3.org/1999/xlink" x="0px" y="0px"
	 viewBox="0 0 24 24" style="enable-background:new 0 0 24 24;" xml:space="preserve">
<style type="text/css">
	.st0{fill:#282C32;}
	.st1{fill:#FFFFFF;}
</style>
<title>我的广告</title>
<desc>Created with Sketch.</desc>
<g id="图标">
	<g id="我的广告">
		<circle id="Oval-Copy-6" class="st0" cx="12" cy="12" r="12"/>
		<path id="AD" class="st1" d="M12.2,16h-1.8l-0.7-1.8H6.4L5.8,16H4l3.2-8H9L12.2,16z M9.2,12.8l-1.1-3l-1.1,3H9.2z M13.1,8h3
			c0.7,0,1.2,0.1,1.6,0.2c0.5,0.1,0.9,0.4,1.2,0.7c0.3,0.4,0.6,0.8,0.8,1.3c0.2,0.5,0.3,1.1,0.3,1.9c0,0.7-0.1,1.2-0.3,1.7
			c-0.2,0.6-0.5,1.1-0.9,1.4c-0.3,0.3-0.7,0.5-1.2,0.6c-0.4,0.1-0.9,0.2-1.5,0.2h-3.1V8z M14.8,9.4v5.3H16c0.5,0,0.8,0,1-0.1
			c0.3-0.1,0.5-0.2,0.7-0.3c0.2-0.2,0.3-0.4,0.4-0.8c0.1-0.4,0.2-0.8,0.2-1.5s-0.1-1.1-0.2-1.4s-0.3-0.6-0.5-0.8
			c-0.2-0.2-0.5-0.3-0.8-0.4c-0.2-0.1-0.7-0.1-1.4-0.1H14.8z"/>
	</g>
</g>
</svg>
