<?xml version="1.0" encoding="utf-8"?>
<!-- Generator: Adobe Illustrator 22.1.0, SVG Export Plug-In . SVG Version: 6.00 Build 0)  -->
<svg version="1.1" id="图层_1" xmlns="http://www.w3.org/2000/svg" xmlns:xlink="http://www.w3.org/1999/xlink" x="0px" y="0px"
	 viewBox="0 0 24 24" style="enable-background:new 0 0 24 24;" xml:space="preserve">
<style type="text/css">
	.st0{fill:#282C32;}
	.st1{fill:#FFFFFF;}
</style>
<title>提笔记录</title>
<desc>Created with Sketch.</desc>
<g id="图标">
	<g id="提笔记录">
		<circle id="Oval-Copy-5" class="st0" cx="12" cy="12" r="12"/>
		<path id="Shape" class="st1" d="M18,16.1c0,1-2.7,1.9-6,1.9s-6-0.8-6-1.9v-1.5c0-0.2,0.1-0.4,0.3-0.6c0.8,0.8,3,1.3,5.7,1.3
			c2.7,0,5-0.6,5.7-1.3c0.2,0.2,0.3,0.4,0.3,0.6L18,16.1L18,16.1z M18,12.8c0,1-2.7,1.9-6,1.9s-6-0.8-6-1.9v-1.5
			c0-0.2,0.1-0.4,0.3-0.6C7,11.4,9.3,12,12,12c2.7,0,5-0.6,5.7-1.3c0.2,0.2,0.3,0.4,0.3,0.6V12.8z M18,9.4c0,1-2.7,1.9-6,1.9
			s-6-0.8-6-1.9V7.9C6,6.8,8.7,6,12,6s6,0.8,6,1.9V9.4z"/>
	</g>
</g>
</svg>
