<?xml version="1.0" encoding="utf-8"?>
<!-- Generator: Adobe Illustrator 22.1.0, SVG Export Plug-In . SVG Version: 6.00 Build 0)  -->
<svg version="1.1" id="图层_1" xmlns="http://www.w3.org/2000/svg" xmlns:xlink="http://www.w3.org/1999/xlink" x="0px" y="0px"
	 viewBox="0 0 24 24" style="enable-background:new 0 0 24 24;" xml:space="preserve">
<style type="text/css">
	.st0{fill:#282C32;}
	.st1{fill:#FFFFFF;}
</style>
<title>收款设置</title>
<desc>Created with Sketch.</desc>
<g id="图标">
	<g id="收款设置">
		<circle id="Oval-Copy-10" class="st0" cx="12" cy="12" r="12"/>
		<path id="Shape" class="st1" d="M8.4,6.2c0.8-0.6,2.5,0.7,3.1,0.7c0.6,0,2.4-1.3,3.1-0.7c0.8,0.6-1,2.1-1,2.1H9.3
			C9.3,8.2,7.6,6.8,8.4,6.2z M13.9,9c0,0.2-0.2,0.4-0.4,0.4H9.5C9.3,9.4,9.1,9.2,9.1,9s0.2-0.4,0.4-0.4h3.9
			C13.7,8.6,13.9,8.8,13.9,9z M11.5,18c-3,0-5.5,0.3-5.5-2.2c0-1.8,1.4-4.7,3.3-6.1h4.4c1.9,1.4,3.3,4.2,3.3,6.1
			C17,18.3,14.5,18,11.5,18z M11.6,12.5c0.2,0,0.3,0.1,0.4,0.2c0.1,0.1,0.1,0.3,0.1,0.4h1.1c0-0.3-0.1-0.6-0.3-0.8
			c-0.2-0.2-0.6-0.3-1-0.4v-0.6h-0.6v0.6c-0.4,0-0.8,0.1-1,0.3C10.1,12.4,10,12.7,10,13c0,0.3,0.1,0.6,0.4,0.7
			c0.2,0.2,0.6,0.3,1.1,0.5c0.2,0.1,0.4,0.2,0.5,0.3c0.1,0.1,0.1,0.2,0.1,0.4c0,0.1,0,0.3-0.1,0.3c-0.1,0.1-0.2,0.1-0.4,0.1
			c-0.2,0-0.4,0-0.5-0.1c-0.1-0.1-0.2-0.3-0.2-0.5H9.8l0,0c0,0.4,0.1,0.7,0.4,0.8c0.3,0.2,0.6,0.3,1.1,0.3v0.5h0.6v-0.5
			c0.4,0,0.8-0.1,1-0.3c0.2-0.2,0.4-0.4,0.4-0.7c0-0.3-0.1-0.6-0.4-0.7c-0.3-0.2-0.6-0.3-1.1-0.5c-0.3-0.1-0.4-0.2-0.5-0.3
			c-0.1-0.1-0.1-0.2-0.1-0.3c0-0.1,0-0.3,0.1-0.4C11.2,12.5,11.4,12.5,11.6,12.5z"/>
	</g>
</g>
</svg>
