<?xml version="1.0" encoding="utf-8"?>
<!-- Generator: Adobe Illustrator 22.1.0, SVG Export Plug-In . SVG Version: 6.00 Build 0)  -->
<svg version="1.1" id="图层_1" xmlns="http://www.w3.org/2000/svg" xmlns:xlink="http://www.w3.org/1999/xlink" x="0px" y="0px"
	 viewBox="0 0 24 24" style="enable-background:new 0 0 24 24;" xml:space="preserve">
<style type="text/css">
	.st0{fill:#282C32;}
	.st1{fill:#FFFFFF;}
</style>
<title>绑定手机</title>
<desc>Created with Sketch.</desc>
<g id="图标">
	<g id="绑定手机">
		<circle id="Oval-Copy-11" class="st0" cx="12" cy="12" r="12"/>
		<path id="Shape" class="st1" d="M15.5,6.6H8.5c-0.2,0-0.3,0.1-0.3,0.3V16c0,0.1,0.1,0.3,0.3,0.3h7.1c0.2,0,0.3-0.1,0.3-0.3V6.9
			C15.8,6.7,15.7,6.6,15.5,6.6z M11.3,17.7c0,0.4,0.3,0.7,0.8,0.7c0.4,0,0.8-0.3,0.8-0.7c0-0.4-0.3-0.7-0.8-0.7
			C11.6,17,11.3,17.3,11.3,17.7z M11.4,6.1h1.2c0.2,0,0.3-0.1,0.3-0.3c0-0.1-0.1-0.3-0.3-0.3h-1.2c-0.2,0-0.3,0.1-0.3,0.3
			C11.1,6,11.3,6.1,11.4,6.1z M15.2,19H8.8c-1,0-1.8-0.7-1.8-1.6V6.6C7,5.7,7.8,5,8.8,5h6.5c1,0,1.8,0.7,1.8,1.6v10.8
			C17,18.3,16.2,19,15.2,19z"/>
	</g>
</g>
</svg>
