<?xml version="1.0" encoding="utf-8"?>
<!-- Generator: Adobe Illustrator 22.1.0, SVG Export Plug-In . SVG Version: 6.00 Build 0)  -->
<svg version="1.1" id="图层_1" xmlns="http://www.w3.org/2000/svg" xmlns:xlink="http://www.w3.org/1999/xlink" x="0px" y="0px"
	 viewBox="0 0 24 24" style="enable-background:new 0 0 24 24;" xml:space="preserve">
<style type="text/css">
	.st0{fill:#282C32;}
	.st1{fill:#FFFFFF;}
</style>
<title>谷歌绑定</title>
<desc>Created with Sketch.</desc>
<g id="图标">
	<g id="谷歌绑定">
		<circle id="Oval-Copy-12" class="st0" cx="12" cy="12" r="12"/>
		<path id="G" class="st1" d="M11.9,13.5v-2H17v4.6c-0.5,0.5-1.2,0.9-2.2,1.3C13.9,17.8,12.9,18,12,18c-1.2,0-2.3-0.3-3.2-0.8
			S7.2,16,6.7,15.1C6.2,14.1,6,13.1,6,12c0-1.2,0.3-2.3,0.8-3.2S8,7.1,9,6.6C9.8,6.2,10.7,6,11.8,6c1.5,0,2.6,0.3,3.4,0.9
			c0.8,0.6,1.3,1.4,1.6,2.5l-2.4,0.4c-0.2-0.6-0.5-1-0.9-1.3S12.5,8,11.8,8c-1,0-1.9,0.3-2.5,1c-0.6,0.6-0.9,1.6-0.9,2.9
			c0,1.4,0.3,2.4,0.9,3.1s1.4,1,2.4,1c0.5,0,1-0.1,1.5-0.3c0.5-0.2,0.9-0.4,1.3-0.7v-1.5H11.9z"/>
	</g>
</g>
</svg>
